<svg width="35" height="20" viewBox="0 0 35 20" fill="none" xmlns="http://www.w3.org/2000/svg">
<g clip-path="url(#clip0_35_63)">
<path fill-rule="evenodd" clip-rule="evenodd" d="M17.1499 19.9811H19.2592C19.2592 19.9811 19.9022 19.9811 20.2695 19.5143C20.6367 19.142 20.6367 18.4876 20.6367 18.4876C20.6367 18.4876 20.6367 15.5937 21.92 15.313C23.2047 14.9393 24.8566 18.0208 26.5086 19.3282C27.7933 20.1687 28.8022 19.9811 28.8022 19.9811H33.3893C33.3893 19.9811 35.8672 19.795 34.674 17.9277C34.4911 17.7401 34.0324 16.4328 31.1872 13.9126C28.252 11.2048 28.7107 11.5786 32.1975 6.81597C34.3067 3.92205 35.1327 2.1479 34.8583 1.40042C34.4911 0.747473 33.0235 0.933615 33.0235 0.933615H27.7004C27.7004 0.933615 27.3346 0.933615 27.0588 1.11976C26.6 1.11976 26.4171 1.58802 26.4171 1.58802C26.4171 1.58802 25.5912 3.73446 24.3979 5.78928C22.1043 9.80441 21.0955 9.99055 20.7282 9.80441C19.9022 9.3376 20.0851 7.47037 20.0851 6.25609C20.0851 2.42711 20.7282 0.747473 18.8933 0.373737C18.6175 0.0930706 18.3417 0 16.7827 0C14.9478 0 13.2959 0 12.4699 0.466807C11.8283 0.840544 11.461 1.49349 11.6439 1.49349C12.0112 1.49349 12.8372 1.68109 13.113 2.33404C13.5717 2.98844 13.5717 4.66807 13.5717 4.66807C13.5717 4.66807 13.9375 9.24453 12.9286 9.89748C12.287 10.2712 11.2767 9.52374 9.16745 5.88235C8.15714 4.01512 7.33116 2.05482 7.33116 2.05482C7.33116 2.05482 7.14825 1.68109 6.87245 1.40042C6.50662 1.21428 6.04791 1.02669 6.04791 1.02669H1.09207C1.09207 1.02669 0.266102 1.02669 0.0831873 1.40042C-0.0997269 1.77416 0.0831873 2.24097 0.0831873 2.24097C0.0831873 2.24097 3.84579 11.484 8.34148 16.1536C12.5614 20.2618 17.1499 19.9811 17.1499 19.9811Z" fill="#FEFEFE"/>
</g>
<defs>
<clipPath id="clip0_35_63">
<rect width="35" height="20" fill="white"/>
</clipPath>
</defs>
</svg>
